# xmcd
#
# Track frame offsets: 
#        150
#        17160
#        26516
#        40064
#        60161
#        70477
#        87591
#        115382
#        131132
#        163008
#
# Disc length: 2612 seconds
#
# Revision: 0
# Processed by: cddbd v1.5.2PL0 Copyright (c) Steve Scherf et al.
# Submitted via: ExactAudioCopy v0.95b4
#
DISCID=850a320a
DTITLE=Opossum Trot Blues Band - Opossum Trot Blues Band
DYEAR=2007
DGENRE=Blues
TTITLE0=Field Party
TTITLE1=In This Life
TTITLE2=Rollin and Tumblin
TTITLE3=Meet Me in the City
TTITLE4=Not Tied Down Anymore
TTITLE5=Turn My World Blue
TTITLE6=Shake em on Down
TTITLE7=Moonshiner
TTITLE8=Waste of Time
TTITLE9=Smokestack Lightning
EXTD=
EXTT0=
EXTT1=
EXTT2=
EXTT3=
EXTT4=
EXTT5=
EXTT6=
EXTT7=
EXTT8=
EXTT9=
PLAYORDER=
